<?xml version="1.0" standalone="no"?>
<!DOCTYPE svg PUBLIC "-//W3C//DTD SVG 20010904//EN"
 "http://www.w3.org/TR/2001/REC-SVG-20010904/DTD/svg10.dtd">
<svg version="1.0" xmlns="http://www.w3.org/2000/svg"
 width="134.000000pt" height="134.000000pt" viewBox="0 0 134.000000 134.000000"
 preserveAspectRatio="xMidYMid meet">
<metadata>
Created by potrace 1.14, written by Peter Selinger 2001-2017
</metadata>
<g transform="translate(0.000000,134.000000) scale(0.100000,-0.100000)"
fill="#000000" stroke="none">
<path d="M756 955 c-3 -10 -19 -15 -46 -15 l-40 0 0 -130 0 -130 -165 0 -165
0 0 130 0 130 -39 0 -39 0 -1 -305 0 -305 39 0 40 0 0 140 0 140 165 0 165 0
0 -139 0 -139 58 -5 c31 -3 65 -7 76 -9 16 -3 31 33 109 247 49 138 91 251 92
253 1 1 44 -14 96 -33 52 -19 95 -35 96 -35 0 0 6 13 11 29 9 24 8 31 -6 36
-63 25 -426 155 -432 155 -4 0 -10 -7 -14 -15z m97 -80 c42 -15 77 -31 77 -34
0 -9 -171 -475 -176 -480 -2 -2 -4 121 -4 273 0 218 3 277 13 274 6 -3 47 -17
90 -33z"/>
</g>
</svg>
